# xmcd
#
# Track frame offsets:
#	150
#	15835
#	27062
#	42180
#	55667
#	73825
#	85602
#	97819
#	110947
#	134086
#	150270
#	165965
#	178078
#	194880
#	209445
#	227834
#	246125
#	259049
#
# Disc length: 3650 seconds
#
# Revision: 3
# Processed by: cddbd v1.5.2PL0 Copyright (c) Steve Scherf et al.
# Submitted via: audiograbber 1.83.01
#
DISCID=eb0e4012
DTITLE=Various Artist - Original Country [CD 2)
DYEAR=1900
DGENRE=Country
TTITLE0=Kenny Rogers - The Gambler
TTITLE1=John Michael Montgomery - Sold (The Grundy County Auction Incident)
TTITLE2=Travis Tritt - Still In Love With You
TTITLE3=Ray Scott - My Kind Of Music
TTITLE4=Clay Walker - Live, Laugh, Love
TTITLE5=Willie Nelson - Shotgun Willie
TTITLE6=Seasick Steve - Walkin Man
TTITLE7=Little Feat - Willin'
TTITLE8=Gene Clark - No Other
TTITLE9=Michael Peterson - From Here To Eternity
TTITLE10=Highway 101 - The Bed You Made For Me
TTITLE11=John Anderson - Wild And Blue
TTITLE12=Claudia Church - What's The Matter With You Baby
TTITLE13=James Gang - Crusin' Down The Highway
TTITLE14=Little Texas - God Blessed Texas
TTITLE15=Ian Matthews - Seven Bridges Road
TTITLE16=Jimmie Dale Gilmore - Tonight I Think I'm Gonna Go Downtown
TTITLE17=Eric Weissberg and Steve Mandell - Dueling Banjos
EXTD=
EXTT0=
EXTT1=
EXTT2=
EXTT3=
EXTT4=
EXTT5=
EXTT6=
EXTT7=
EXTT8=
EXTT9=
EXTT10=
EXTT11=
EXTT12=
EXTT13=
EXTT14=
EXTT15=
EXTT16=
EXTT17=
PLAYORDER=
